<svg xmlns="http://www.w3.org/2000/svg" viewBox="0 0 512 512" width="100%" height="100%">
  <defs>
    <radialGradient id="bg-grad" cx="50%" cy="50%" r="70%">
      <stop offset="0%" stop-color="#151a28" />
      <stop offset="100%" stop-color="#0b0f19" />
    </radialGradient>

    <linearGradient id="core-grad" x1="0%" y1="100%" x2="100%" y2="0%">
      <stop offset="0%" stop-color="#2563eb" />
      <stop offset="50%" stop-color="#3b82f6" />
      <stop offset="100%" stop-color="#60a5fa" />
    </linearGradient>

    <filter id="glow" x="-20%" y="-20%" width="140%" height="140%">
      <feGaussianBlur stdDeviation="4" result="blur" />
      <feComposite in="SourceGraphic" in2="blur" operator="over" />
    </filter>
  </defs>

  <rect width="512" height="512" rx="112" fill="url(#bg-grad)" />

  <circle cx="256" cy="256" r="180" fill="none" stroke="#232b3e" stroke-width="2" stroke-dasharray="4 8" />
  <circle cx="256" cy="256" r="120" fill="none" stroke="#232b3e" stroke-width="1.5" />
  
  <line x1="256" y1="40" x2="256" y2="472" stroke="#232b3e" stroke-width="1" stroke-dasharray="2 4" />
  <line x1="40" y1="256" x2="472" y2="256" stroke="#232b3e" stroke-width="1" stroke-dasharray="2 4" />

  <path d="M140,340 C190,290 240,200 340,160 C300,220 240,280 140,340 Z" fill="url(#core-grad)" opacity="0.85" filter="url(#glow)" />
  
  <circle cx="260" cy="240" r="28" fill="#ffffff" filter="url(#glow)" />
  <circle cx="260" cy="240" r="12" fill="#e2e8f0" />

  <circle cx="360" cy="300" r="5" fill="#34d399" filter="url(#glow)" /> <circle cx="180" cy="190" r="4" fill="#60a5fa" />
  <circle cx="320" cy="120" r="3" fill="#ffffff" />
  <circle cx="200" cy="360" r="2" fill="#8a99ad" />
  <circle cx="380" cy="200" r="3.5" fill="#ffffff" opacity="0.7" />

  <path d="M 100 140 L 100 100 L 140 100" fill="none" stroke="#3b82f6" stroke-width="4" stroke-linecap="round" opacity="0.4" />
  <path d="M 412 140 L 412 100 L 372 100" fill="none" stroke="#3b82f6" stroke-width="4" stroke-linecap="round" opacity="0.4" />
  <path d="M 100 372 L 100 412 L 140 412" fill="none" stroke="#3b82f6" stroke-width="4" stroke-linecap="round" opacity="0.4" />
  <path d="M 412 372 L 412 412 L 372 412" fill="none" stroke="#3b82f6" stroke-width="4" stroke-linecap="round" opacity="0.4" />
</svg>
